<?xml version="1.0" standalone="no"?><?xml-stylesheet type="text/css" href="https://wps.processon.com/themes/default/wps/mind/icons/icons.css" ?><!DOCTYPE svg PUBLIC "-//W3C//DTD SVG 1.1//EN" "http://www.w3.org/Graphics/SVG/1.1/DTD/svg11.dtd"><svg id="SvgjsSvg1177" width="1907.5952508108958" height="843.7095890113975" xmlns="http://www.w3.org/2000/svg" version="1.1" xmlns:xlink="http://www.w3.org/1999/xlink" xmlns:svgjs="http://svgjs.com/svgjs"><defs id="SvgjsDefs1178"><pattern patternUnits="userSpaceOnUse" id="pattern_mark_0" width="300" height="300"><text x="150" y="100" fill="rgba(229,229,229,0.8)" font-size="18" transform="rotate(-45, 150, 150)" style="dominant-baseline: middle; text-anchor: middle;"></text></pattern><pattern patternUnits="userSpaceOnUse" id="pattern_mark_1" width="300" height="300"><text x="150" y="200" fill="rgba(229,229,229,0.8)" font-size="18" transform="rotate(-45, 150, 150)" style="dominant-baseline: middle; text-anchor: middle;"></text></pattern><marker id="SvgjsMarker1248" markerWidth="16" markerHeight="12" refX="11" refY="6" viewBox="0 0 16 12" orient="auto" markerUnits="userSpaceOnUse" stroke-dasharray="0,0"><path id="SvgjsPath1249" d="M0,0 L16,6 L0,12 L0,0" fill="#323232" stroke="#323232" stroke-width="1"></path></marker><marker id="SvgjsMarker1252" markerWidth="16" markerHeight="12" refX="11" refY="6" viewBox="0 0 16 12" orient="auto" markerUnits="userSpaceOnUse" stroke-dasharray="0,0"><path id="SvgjsPath1253" d="M0,0 L16,6 L0,12 L0,0" fill="#323232" stroke="#323232" stroke-width="1"></path></marker><marker id="SvgjsMarker1256" markerWidth="16" markerHeight="12" refX="11" refY="6" viewBox="0 0 16 12" orient="auto" markerUnits="userSpaceOnUse" stroke-dasharray="0,0"><path id="SvgjsPath1257" d="M0,0 L16,6 L0,12 L0,0" fill="#323232" stroke="#323232" stroke-width="1"></path></marker><marker id="SvgjsMarker1276" markerWidth="16" markerHeight="12" refX="11" refY="6" viewBox="0 0 16 12" orient="auto" markerUnits="userSpaceOnUse" stroke-dasharray="0,0"><path id="SvgjsPath1277" d="M0,0 L16,6 L0,12 L0,0" fill="#323232" stroke="#323232" stroke-width="1"></path></marker><marker id="SvgjsMarker1288" markerWidth="16" markerHeight="12" refX="11" refY="6" viewBox="0 0 16 12" orient="auto" markerUnits="userSpaceOnUse" stroke-dasharray="0,0"><path id="SvgjsPath1289" d="M0,0 L16,6 L0,12 L0,0" fill="#323232" stroke="#323232" stroke-width="1"></path></marker><marker id="SvgjsMarker1292" markerWidth="16" markerHeight="12" refX="5" refY="6" viewBox="0 0 16 12" orient="0" markerUnits="userSpaceOnUse" stroke-dasharray="0,0"><path id="SvgjsPath1293" d="M16,0 L0,6 L16,12 L16,0" fill="#323232" stroke="#323232" stroke-width="1"></path></marker><marker id="SvgjsMarker1312" markerWidth="16" markerHeight="12" refX="11" refY="6" viewBox="0 0 16 12" orient="auto" markerUnits="userSpaceOnUse" stroke-dasharray="0,0"><path id="SvgjsPath1313" d="M0,0 L16,6 L0,12 L0,0" fill="#323232" stroke="#323232" stroke-width="1"></path></marker><marker id="SvgjsMarker1316" markerWidth="16" markerHeight="12" refX="11" refY="6" viewBox="0 0 16 12" orient="auto" markerUnits="userSpaceOnUse" stroke-dasharray="0,0"><path id="SvgjsPath1317" d="M0,0 L16,6 L0,12 L0,0" fill="#323232" stroke="#323232" stroke-width="1"></path></marker><marker id="SvgjsMarker1338" markerWidth="16" markerHeight="12" refX="11" refY="6" viewBox="0 0 16 12" orient="auto" markerUnits="userSpaceOnUse" stroke-dasharray="0,0"><path id="SvgjsPath1339" d="M0,0 L16,6 L0,12 L0,0" fill="#323232" stroke="#323232" stroke-width="1"></path></marker><pattern id="SvgjsPattern1344" x="0" y="0" width="100" height="42" patternUnits="userSpaceOnUse"><image id="SvgjsImage1345" xlink:href="https://tc-cdn.processon.com/wps/68642119efee4d4abd9b3718" width="100" height="42" preserveAspectRatio="none" crossOrigin="anonymous" x="0" y="0"></image></pattern><pattern patternUnits="userSpaceOnUse" id="wpspattern_mark_0" width="300" height="300"><text x="150" y="100" fill="#0000004d" font-size="18" transform="rotate(-45, 150, 150)" style="dominant-baseline: middle; text-anchor: middle;"></text></pattern></defs><rect id="svgbackgroundid" width="1907.5952508108958" height="843.7095890113975" fill="transparent"></rect><rect id="SvgjsRect1180" width="1907.5952508108958" height="843.7095890113975" fill="url(#pattern_mark_0)"></rect><rect id="SvgjsRect1181" width="1907.5952508108958" height="843.7095890113975" fill="url(#pattern_mark_1)"></rect><g id="SvgjsG1182" transform="translate(25,215.8977930886399)"><path id="SvgjsPath1183" d="M 0 4Q 0 0 4 0L 432.333 0Q 436.333 0 436.333 4L 436.333 121.052Q 436.333 125.052 432.333 125.052L 4 125.052Q 0 125.052 0 121.052Z" stroke-dasharray="7.5,3" stroke="rgba(33,41,48,1)" stroke-width="1.5" fill-opacity="1" fill="#ffdab9"></path><g id="SvgjsG1184"><text id="SvgjsText1185" font-family="&quot;Microsoft YaHei&quot;, 微软雅黑, Arial" text-anchor="middle" font-size="13px" width="417px" fill="#323232" font-weight="400" align="middle" lineHeight="125%" anchor="middle" family="&quot;Microsoft YaHei&quot;, 微软雅黑, Arial" size="13px" weight="400" font-style="" opacity="1" y="51.901" transform="rotate(0)"></text></g></g><g id="SvgjsG1186" transform="translate(46.96667938232423,261.8541677263047)"><path id="SvgjsPath1187" d="M 0 4Q 0 0 4 0L 390 0Q 394 0 394 4L 394 50Q 394 54 390 54L 4 54Q 0 54 0 50Z" stroke="rgba(33,41,48,1)" stroke-width="1.5" fill-opacity="1" fill="#caedb4"></path><g id="SvgjsG1188"><text id="SvgjsText1189" font-family="&quot;Microsoft YaHei&quot;, 微软雅黑, Arial" text-anchor="middle" font-size="20px" width="374px" fill="#323232" font-weight="400" align="middle" lineHeight="125%" anchor="middle" family="&quot;Microsoft YaHei&quot;, 微软雅黑, Arial" size="20px" weight="400" font-style="" opacity="1" y="9" transform="rotate(0)"><tspan id="SvgjsTspan1190" dy="25" x="197"><tspan id="SvgjsTspan1191" style="">A [class] bearing</tspan></tspan></text></g></g><g id="SvgjsG1192" transform="translate(46.96667938232426,220.7477083961611)"><path id="SvgjsPath1193" d="M 0 0L 237.748 0L 237.748 40L 0 40Z" stroke="none" fill="none"></path><g id="SvgjsG1194"><text id="SvgjsText1195" font-family="&quot;Microsoft YaHei&quot;, 微软雅黑, Arial" text-anchor="middle" font-size="24px" width="238px" fill="#7985ec" font-weight="700" align="middle" lineHeight="125%" anchor="middle" family="&quot;Microsoft YaHei&quot;, 微软雅黑, Arial" size="24px" weight="700" font-style="" opacity="1" y="-1" transform="rotate(0)"><tspan id="SvgjsTspan1196" dy="30" x="119"><tspan id="SvgjsTspan1197" style="">Prompt</tspan></tspan></text></g></g><g id="SvgjsG1198" transform="translate(534.3148277070787,238.30151071604212)"><path id="SvgjsPath1199" d="M 0 4Q 0 0 4 0L 209.995 0Q 213.995 0 213.995 4L 213.995 76.022Q 213.995 80.022 209.995 80.022L 4 80.022Q 0 80.022 0 76.022Z" stroke="rgba(33,41,48,1)" stroke-width="1.5" fill-opacity="1" fill="#b0e38f"></path><g id="SvgjsG1200"><text id="SvgjsText1201" font-family="&quot;Microsoft YaHei&quot;, 微软雅黑, Arial" text-anchor="middle" font-size="24px" width="194px" fill="#7985ec" font-weight="700" align="middle" lineHeight="125%" anchor="middle" family="&quot;Microsoft YaHei&quot;, 微软雅黑, Arial" size="24px" weight="700" font-style="" opacity="1" y="19.011000000000003" transform="rotate(0)"><tspan id="SvgjsTspan1202" dy="30" x="107"><tspan id="SvgjsTspan1203" style="">Text Encoder     </tspan></tspan></text></g></g><g id="SvgjsG1204" transform="translate(805.4523936680386,25)"><path id="SvgjsPath1205" d="M 0 4Q 0 0 4 0L 125.131 0Q 129.131 0 129.131 4L 129.131 502.625Q 129.131 506.625 125.131 506.625L 4 506.625Q 0 506.625 0 502.625Z" stroke-dasharray="7.5,3,1.5,3" stroke="rgba(33,41,48,1)" stroke-width="1.5" fill-opacity="1" fill="#faf0e6"></path><g id="SvgjsG1206"><text id="SvgjsText1207" font-family="&quot;Microsoft YaHei&quot;, 微软雅黑, Arial" text-anchor="middle" font-size="13px" width="110px" fill="#5b79e8" font-weight="400" align="middle" lineHeight="125%" anchor="middle" family="&quot;Microsoft YaHei&quot;, 微软雅黑, Arial" size="13px" weight="400" font-style="" opacity="1" y="242.6875" transform="rotate(0)"></text></g></g><g id="SvgjsG1208" transform="translate(822.2899171157645,91.7777724795869)"><path id="SvgjsPath1209" d="M 0 4Q 0 0 4 0L 93.823 0Q 97.823 0 97.823 4L 97.823 31Q 97.823 35 93.823 35L 4 35Q 0 35 0 31Z" stroke="rgba(33,41,48,1)" stroke-width="1.5" fill-opacity="1" fill="#fff0f5"></path><g id="SvgjsG1210"><text id="SvgjsText1211" font-family="&quot;Microsoft YaHei&quot;, 微软雅黑, Arial" text-anchor="middle" font-size="13px" width="78px" fill="#5b79e8" font-weight="400" align="middle" lineHeight="125%" anchor="middle" family="&quot;Microsoft YaHei&quot;, 微软雅黑, Arial" size="13px" weight="400" font-style="" opacity="1" y="6.875" transform="rotate(0)"></text></g></g><g id="SvgjsG1212" transform="translate(822.2899171157645,149.81248834398028)"><path id="SvgjsPath1213" d="M 0 4Q 0 0 4 0L 93.823 0Q 97.823 0 97.823 4L 97.823 31Q 97.823 35 93.823 35L 4 35Q 0 35 0 31Z" stroke="rgba(33,41,48,1)" stroke-width="1.5" fill-opacity="1" fill="#fff0f5"></path><g id="SvgjsG1214"><text id="SvgjsText1215" font-family="&quot;Microsoft YaHei&quot;, 微软雅黑, Arial" text-anchor="middle" font-size="13px" width="78px" fill="#5b79e8" font-weight="400" align="middle" lineHeight="125%" anchor="middle" family="&quot;Microsoft YaHei&quot;, 微软雅黑, Arial" size="13px" weight="400" font-style="" opacity="1" y="6.875" transform="rotate(0)"></text></g></g><g id="SvgjsG1216" transform="translate(822.2899171157645,205.3680438995358)"><path id="SvgjsPath1217" d="M 0 4Q 0 0 4 0L 93.823 0Q 97.823 0 97.823 4L 97.823 31Q 97.823 35 93.823 35L 4 35Q 0 35 0 31Z" stroke="rgba(33,41,48,1)" stroke-width="1.5" fill-opacity="1" fill="#fff0f5"></path><g id="SvgjsG1218"><text id="SvgjsText1219" font-family="&quot;Microsoft YaHei&quot;, 微软雅黑, Arial" text-anchor="middle" font-size="13px" width="78px" fill="#5b79e8" font-weight="400" align="middle" lineHeight="125%" anchor="middle" family="&quot;Microsoft YaHei&quot;, 微软雅黑, Arial" size="13px" weight="400" font-style="" opacity="1" y="6.875" transform="rotate(0)"></text></g></g><g id="SvgjsG1220" transform="translate(822.2899171157645,260.92359945509133)"><path id="SvgjsPath1221" d="M 0 4Q 0 0 4 0L 93.823 0Q 97.823 0 97.823 4L 97.823 31Q 97.823 35 93.823 35L 4 35Q 0 35 0 31Z" stroke="rgba(33,41,48,1)" stroke-width="1.5" fill-opacity="1" fill="#fff0f5"></path><g id="SvgjsG1222"><text id="SvgjsText1223" font-family="&quot;Microsoft YaHei&quot;, 微软雅黑, Arial" text-anchor="middle" font-size="13px" width="78px" fill="#5b79e8" font-weight="400" align="middle" lineHeight="125%" anchor="middle" family="&quot;Microsoft YaHei&quot;, 微软雅黑, Arial" size="13px" weight="400" font-style="" opacity="1" y="6.875" transform="rotate(0)"></text></g></g><g id="SvgjsG1224" transform="translate(822.2899171157645,316.4791550106469)"><path id="SvgjsPath1225" d="M 0 4Q 0 0 4 0L 93.823 0Q 97.823 0 97.823 4L 97.823 31Q 97.823 35 93.823 35L 4 35Q 0 35 0 31Z" stroke="rgba(33,41,48,1)" stroke-width="1.5" fill-opacity="1" fill="#e6e6fa"></path><g id="SvgjsG1226"><text id="SvgjsText1227" font-family="&quot;Microsoft YaHei&quot;, 微软雅黑, Arial" text-anchor="middle" font-size="13px" width="78px" fill="#5b79e8" font-weight="400" align="middle" lineHeight="125%" anchor="middle" family="&quot;Microsoft YaHei&quot;, 微软雅黑, Arial" size="13px" weight="400" font-style="" opacity="1" y="6.875" transform="rotate(0)"></text></g></g><g id="SvgjsG1228" transform="translate(822.2899171157645,375.03273915487614)"><path id="SvgjsPath1229" d="M 0 4Q 0 0 4 0L 93.823 0Q 97.823 0 97.823 4L 97.823 31Q 97.823 35 93.823 35L 4 35Q 0 35 0 31Z" stroke="rgba(33,41,48,1)" stroke-width="1.5" fill-opacity="1" fill="#e6e6fa"></path><g id="SvgjsG1230"><text id="SvgjsText1231" font-family="&quot;Microsoft YaHei&quot;, 微软雅黑, Arial" text-anchor="middle" font-size="13px" width="78px" fill="#5b79e8" font-weight="400" align="middle" lineHeight="125%" anchor="middle" family="&quot;Microsoft YaHei&quot;, 微软雅黑, Arial" size="13px" weight="400" font-style="" opacity="1" y="6.875" transform="rotate(0)"></text></g></g><g id="SvgjsG1232" transform="translate(822.2899171157645,427.59026612175774)"><path id="SvgjsPath1233" d="M 0 4Q 0 0 4 0L 93.823 0Q 97.823 0 97.823 4L 97.823 31Q 97.823 35 93.823 35L 4 35Q 0 35 0 31Z" stroke="rgba(33,41,48,1)" stroke-width="1.5" fill-opacity="1" fill="#e6e6fa"></path><g id="SvgjsG1234"><text id="SvgjsText1235" font-family="&quot;Microsoft YaHei&quot;, 微软雅黑, Arial" text-anchor="middle" font-size="13px" width="78px" fill="#5b79e8" font-weight="400" align="middle" lineHeight="125%" anchor="middle" family="&quot;Microsoft YaHei&quot;, 微软雅黑, Arial" size="13px" weight="400" font-style="" opacity="1" y="6.875" transform="rotate(0)"></text></g></g><g id="SvgjsG1236" transform="translate(822.2899171157645,483.1458216773134)"><path id="SvgjsPath1237" d="M 0 4Q 0 0 4 0L 93.823 0Q 97.823 0 97.823 4L 97.823 31Q 97.823 35 93.823 35L 4 35Q 0 35 0 31Z" stroke="rgba(33,41,48,1)" stroke-width="1.5" fill-opacity="1" fill="#e6e6fa"></path><g id="SvgjsG1238"><text id="SvgjsText1239" font-family="&quot;Microsoft YaHei&quot;, 微软雅黑, Arial" text-anchor="middle" font-size="13px" width="78px" fill="#5b79e8" font-weight="400" align="middle" lineHeight="125%" anchor="middle" family="&quot;Microsoft YaHei&quot;, 微软雅黑, Arial" size="13px" weight="400" font-style="" opacity="1" y="6.875" transform="rotate(0)"></text></g></g><g id="SvgjsG1240" transform="translate(806.6357100715511,28.520834392971352)"><path id="SvgjsPath1241" d="M 0 0L 129.131 0L 129.131 40L 0 40Z" stroke="none" fill="none"></path><g id="SvgjsG1242"><text id="SvgjsText1243" font-family="&quot;Microsoft YaHei&quot;, 微软雅黑, Arial" text-anchor="middle" font-size="20px" width="130px" fill="#5b79e8" font-weight="700" align="middle" lineHeight="125%" anchor="middle" family="&quot;Microsoft YaHei&quot;, 微软雅黑, Arial" size="20px" weight="700" font-style="italic" opacity="1" y="2" transform="rotate(0)"><tspan id="SvgjsTspan1244" dy="25" x="65"><tspan id="SvgjsTspan1245" style="">text tokens</tspan></tspan></text></g></g><g id="SvgjsG1246"><path id="SvgjsPath1247" d="M283.52814777588895 693.5327381641076L503.92563140148104 693.532519801206" stroke="#323232" stroke-width="3" fill="none" marker-end="url(#SvgjsMarker1248)"></path></g><g id="SvgjsG1250"><path id="SvgjsPath1251" d="M462.0833578954473 278.42245761404644L529.6648330961259 278.31956775845885" stroke="#323232" stroke-width="3" fill="none" marker-end="url(#SvgjsMarker1252)"></path></g><g id="SvgjsG1254"><path id="SvgjsPath1255" d="M749.0595365251814 278.3125107160422L800.8023936680386 278.3125107160422" stroke="#323232" stroke-width="3" fill="none" marker-end="url(#SvgjsMarker1256)"></path></g><g id="SvgjsG1258" transform="translate(1276.9618875588903,568.3558892983548)"><path id="SvgjsPath1259" d="M 0 4Q 0 0 4 0L 150.4 0Q 154.4 0 154.4 4L 154.4 246.354Q 154.4 250.354 150.4 250.354L 4 250.354Q 0 250.354 0 246.354Z" stroke-dasharray="7.5,3" stroke="rgba(33,41,48,1)" stroke-width="1.5" fill-opacity="1" fill="#ffffff"></path><g id="SvgjsG1260"><text id="SvgjsText1261" font-family="&quot;Microsoft YaHei&quot;, 微软雅黑, Arial" text-anchor="middle" font-size="13px" width="135px" fill="#323232" font-weight="400" align="middle" lineHeight="125%" anchor="middle" family="&quot;Microsoft YaHei&quot;, 微软雅黑, Arial" size="13px" weight="400" font-style="" opacity="1" y="114.552" transform="rotate(0)"></text></g></g><g id="SvgjsG1262" transform="translate(1327.5936882513267,659.0327391548761)"><path id="SvgjsPath1263" d="M 0 4Q 0 0 4 0L 57.2 0Q 61.2 0 61.2 4L 61.2 23Q 61.2 27 57.2 27L 4 27Q 0 27 0 23Z" stroke="rgba(33,41,48,1)" stroke-width="1.5" fill-opacity="1" fill="#fff5ee"></path><g id="SvgjsG1264"><text id="SvgjsText1265" font-family="&quot;Microsoft YaHei&quot;, 微软雅黑, Arial" text-anchor="middle" font-size="13px" width="42px" fill="#323232" font-weight="400" align="middle" lineHeight="125%" anchor="middle" family="&quot;Microsoft YaHei&quot;, 微软雅黑, Arial" size="13px" weight="400" font-style="" opacity="1" y="2.875" transform="rotate(0)"></text></g></g><g id="SvgjsG1266" transform="translate(1362.0815155246592,140.70236293853267)"><path id="SvgjsPath1267" d="M 0 8.283Q 24.85 24.85 49.7 8.283Q 74.55 -8.283 99.4 8.283L 99.4 266.937Q 74.55 250.37 49.7 266.937Q 24.85 283.504 0 266.937L 0 8.283Z" stroke="rgba(33,41,48,1)" stroke-width="1.5" fill-opacity="1" fill="#eed5b7"></path><g id="SvgjsG1268"><text id="SvgjsText1269" font-family="&quot;Microsoft YaHei&quot;, 微软雅黑, Arial" text-anchor="middle" font-size="24px" width="100px" fill="#323232" font-weight="700" align="middle" lineHeight="125%" anchor="middle" family="&quot;Microsoft YaHei&quot;, 微软雅黑, Arial" size="24px" weight="700" font-style="italic" opacity="1" y="116.60999999999999" transform="rotate(0)"></text></g></g><g id="SvgjsG1270" transform="translate(1071.6666793823242,258.3124883439805)"><path id="SvgjsPath1271" d="M 0 20C 0 -6.667 40.8 -6.667 40.8 20C 40.8 46.667 0 46.667 0 20Z" stroke="rgba(33,41,48,1)" stroke-width="1.5" fill-opacity="1" fill="#eea2ae"></path><path id="SvgjsPath1272" d="M 6.8 6.667L 34 33.333M 34 6.667L 6.8 33.333" stroke="rgba(33,41,48,1)" stroke-width="1.5" fill-opacity="1" fill="#eea2ae"></path><path id="SvgjsPath1273" d="M 0 20C 0 -6.667 40.8 -6.667 40.8 20C 40.8 46.667 0 46.667 0 20Z" stroke="none" fill="none"></path></g><g id="SvgjsG1274"><path id="SvgjsPath1275" d="M1317.0357121091931 567.6058892983548L1317.0357121091931 434.7627602497391L1092.0666793823243 434.7627602497391L1092.0666793823243 302.96248834398045" stroke="#323232" stroke-width="3" fill="none" marker-end="url(#SvgjsMarker1276)"></path></g><g id="SvgjsG1278" transform="translate(1126.8618875588904,480.46494334511954)"><path id="SvgjsPath1279" d="M 0 4Q 0 0 4 0L 146.1 0Q 150.1 0 150.1 4L 150.1 58Q 150.1 62 146.1 62L 4 62Q 0 62 0 58Z" stroke="rgba(33,41,48,1)" stroke-width="1.5" fill-opacity="1" fill="#ffe4e1"></path><g id="SvgjsG1280"><text id="SvgjsText1281" font-family="&quot;Microsoft YaHei&quot;, 微软雅黑, Arial" text-anchor="middle" font-size="24px" width="131px" fill="#323232" font-weight="700" align="middle" lineHeight="125%" anchor="middle" family="&quot;Microsoft YaHei&quot;, 微软雅黑, Arial" size="24px" weight="700" font-style="" opacity="1" y="-5" transform="rotate(0)"><tspan id="SvgjsTspan1282" dy="30" x="75.5"><tspan id="SvgjsTspan1283" style="">Residual    </tspan></tspan><tspan id="SvgjsTspan1284" dy="30" x="75.5"><tspan id="SvgjsTspan1285" style="">Adapter    </tspan></tspan></text></g></g><g id="SvgjsG1286"><path id="SvgjsPath1287" d="M1126.1118875588904 511.46457993659817L1092.0666793823243 511.46457993659817L1092.0666793823243 302.96248834398045" stroke="#323232" stroke-width="3" fill="none" marker-end="url(#SvgjsMarker1288)"></path></g><g id="SvgjsG1290"><path id="SvgjsPath1291" d="M1281.6118875588904 511.46457993659817L1317.944803018284 511.46457993659817L1317.944803018284 567.6058892983548" stroke="#323232" stroke-width="3" fill="none" marker-start="url(#SvgjsMarker1292)"></path></g><g id="SvgjsG1294" transform="translate(1495.8166793823243,220.7477083961611)"><path id="SvgjsPath1295" d="M 0 38.066L 68.157 38.066L 68.157 0L 123.921 57.676L 68.157 115.352L 68.157 77.286L 0 77.286L 0 38.066Z" stroke="rgba(33,41,48,1)" stroke-width="1.5" fill-opacity="1" fill="#fff5ee"></path><g id="SvgjsG1296"><text id="SvgjsText1297" font-family="&quot;Microsoft YaHei&quot;, 微软雅黑, Arial" text-anchor="middle" font-size="13px" width="124px" fill="#323232" font-weight="400" align="middle" lineHeight="125%" anchor="middle" family="&quot;Microsoft YaHei&quot;, 微软雅黑, Arial" size="13px" weight="400" font-style="" opacity="1" y="47.051" transform="rotate(0)"></text></g></g><g id="SvgjsG1298" transform="translate(1307.4666793823242,687.3424395248828)"><path id="SvgjsPath1299" d="M 0 0L 99.4 0L 99.4 40L 0 40Z" stroke="none" fill="none"></path><g id="SvgjsG1300"><text id="SvgjsText1301" font-family="Arial" text-anchor="middle" font-size="17px" width="100px" fill="#7f7f7f" font-weight="700" align="middle" lineHeight="125%" anchor="middle" family="Arial" size="17px" weight="700" font-style="italic" opacity="1" y="5.375" transform="rotate(0)"><tspan id="SvgjsTspan1302" dy="21.25" x="50"><tspan id="SvgjsTspan1303" style="">class token</tspan></tspan></text></g></g><g id="SvgjsG1304" transform="matrix(-1.8369701987210297e-16,-1,1,-1.8369701987210297e-16,1382.2219049644189,362.1994207191751)"><path id="SvgjsPath1305" d="M 0 0L 137.5 0L 137.5 66.592L 0 66.592Z" stroke="none" fill="none"></path><g id="SvgjsG1306"><text id="SvgjsText1307" font-family="Beau" text-anchor="middle" font-size="32px" width="138px" fill="#7f8b98" font-weight="700" align="middle" lineHeight="125%" anchor="middle" family="Beau" size="32px" weight="700" font-style="italic" opacity="1" y="5.295999999999999" transform="rotate(0)"><tspan id="SvgjsTspan1308" dy="40" x="69"><tspan id="SvgjsTspan1309" style="">Softmax</tspan></tspan></text></g></g><g id="SvgjsG1310"><path id="SvgjsPath1311" d="M935.3333936680385 278.312L1003.1250365251813 278.312L1003.1250365251813 278.3124883439805L1067.0166793823241 278.3124883439805" stroke="#323232" stroke-width="3" fill="none" marker-end="url(#SvgjsMarker1312)"></path></g><g id="SvgjsG1314"><path id="SvgjsPath1315" d="M1113.2166793823242 278.3124883439805L1237.2740974534918 278.3124883439805L1237.2740974534918 278.31236293853266L1357.431515524659 278.31236293853266" stroke="#323232" stroke-width="3" fill="none" marker-end="url(#SvgjsMarker1316)"></path></g><g id="SvgjsG1318" transform="translate(25,598.419656632439)"><path id="SvgjsPath1319" d="M 0 0L 257.528 0L 257.528 190.226L 0 190.226Z" stroke="rgba(33,41,48,1)" stroke-width="2" fill-opacity="1" fill="#f6edc1"></path><g id="SvgjsG1320"><text id="SvgjsText1321" font-family="&quot;Microsoft YaHei&quot;, 微软雅黑, Arial" text-anchor="middle" font-size="24px" width="238px" fill="#7985ec" font-weight="700" align="middle" lineHeight="125%" anchor="middle" family="&quot;Microsoft YaHei&quot;, 微软雅黑, Arial" size="24px" weight="700" font-style="" opacity="1" y="74.113" transform="rotate(0)"><tspan id="SvgjsTspan1322" dy="30" x="129"><tspan id="SvgjsTspan1323" style="">Datasets</tspan></tspan></text></g></g><g id="SvgjsG1324" transform="translate(1659.738107953753,243.31248834398048)"><path id="SvgjsPath1325" d="M 23.333 0L 222.857 0L 199.524 70L 0 70L 23.333 0Z" stroke="rgba(33,41,48,1)" stroke-width="1.5" fill-opacity="1" fill="#e74f4c"></path><g id="SvgjsG1326"><text id="SvgjsText1327" font-family="Beau" text-anchor="middle" font-size="24px" width="156px" fill="#70d5d7" font-weight="700" align="middle" lineHeight="125%" anchor="middle" family="Beau" size="24px" weight="700" font-style="italic" opacity="1" y="14" transform="rotate(0)"><tspan id="SvgjsTspan1328" dy="30" x="111.429"><tspan id="SvgjsTspan1329" style="">results</tspan></tspan></text></g></g><g id="SvgjsG1330" transform="translate(508.57563140147874,607.3524112443101)"><path id="SvgjsPath1331" d="M 0 0L 551.162 0L 551.162 172.361L 0 172.361Z" stroke="rgba(33,41,48,1)" stroke-width="1.5" fill-opacity="1" fill="#b7eaeb"></path><g id="SvgjsG1332"><text id="SvgjsText1333" font-family="&quot;Microsoft YaHei&quot;, 微软雅黑, Arial" text-anchor="middle" font-size="24px" width="532px" fill="#569230" font-weight="700" align="middle" lineHeight="125%" anchor="middle" family="&quot;Microsoft YaHei&quot;, 微软雅黑, Arial" size="24px" weight="700" font-style="" opacity="1" y="65.1805" transform="rotate(0)"><tspan id="SvgjsTspan1334" dy="30" x="276"><tspan id="SvgjsTspan1335" style="">Mudule:1D CNN</tspan></tspan></text></g></g><g id="SvgjsG1336"><path id="SvgjsPath1337" d="M1060.4876314014787 693.5324112443102L1168.3497594801845 693.5324112443102L1168.3497594801845 693.5328892983548L1272.3118875588902 693.5328892983548" stroke="#323232" stroke-width="3" fill="none" marker-end="url(#SvgjsMarker1338)"></path></g><g id="SvgjsG1340" transform="translate(1507.7773936680387,370.03273915487614)"><path id="SvgjsPath1341" d="M 0 0L 100 0L 100 40L 0 40Z" stroke="none" fill="none"></path><g id="SvgjsG1342"><rect id="SvgjsRect1343" width="100" height="42" transform="translate(0,-1)" fill="url(#SvgjsPattern1344)"></rect></g></g><g id="SvgjsG1346"></g><rect id="SvgjsRect1347" width="1907.5952508108958" height="843.7095890113975" fill="url(#wpspattern_mark_0)"></rect></svg>