<?xml version="1.0" standalone="no"?><?xml-stylesheet type="text/css" href="https://wps.processon.com/themes/default/wps/mind/icons/icons.css" ?><!DOCTYPE svg PUBLIC "-//W3C//DTD SVG 1.1//EN" "http://www.w3.org/Graphics/SVG/1.1/DTD/svg11.dtd"><svg id="SvgjsSvg1006" width="2000.6341725491193" height="839.9893382005013" xmlns="http://www.w3.org/2000/svg" version="1.1" xmlns:xlink="http://www.w3.org/1999/xlink" xmlns:svgjs="http://svgjs.com/svgjs"><defs id="SvgjsDefs1007"><pattern patternUnits="userSpaceOnUse" id="pattern_mark_0" width="300" height="300"><text x="150" y="100" fill="rgba(229,229,229,0.8)" font-size="18" transform="rotate(-45, 150, 150)" style="dominant-baseline: middle; text-anchor: middle;"></text></pattern><pattern patternUnits="userSpaceOnUse" id="pattern_mark_1" width="300" height="300"><text x="150" y="200" fill="rgba(229,229,229,0.8)" font-size="18" transform="rotate(-45, 150, 150)" style="dominant-baseline: middle; text-anchor: middle;"></text></pattern><marker id="SvgjsMarker1115" markerWidth="16" markerHeight="12" refX="11" refY="6" viewBox="0 0 16 12" orient="auto" markerUnits="userSpaceOnUse" stroke-dasharray="0,0"><path id="SvgjsPath1116" d="M0,0 L16,6 L0,12 L0,0" fill="#323232" stroke="#323232" stroke-width="1"></path></marker><marker id="SvgjsMarker1125" markerWidth="16" markerHeight="12" refX="11" refY="6" viewBox="0 0 16 12" orient="auto" markerUnits="userSpaceOnUse" stroke-dasharray="0,0"><path id="SvgjsPath1126" d="M0,0 L16,6 L0,12 L0,0" fill="#323232" stroke="#323232" stroke-width="1"></path></marker><marker id="SvgjsMarker1129" markerWidth="16" markerHeight="12" refX="11" refY="6" viewBox="0 0 16 12" orient="auto" markerUnits="userSpaceOnUse" stroke-dasharray="0,0"><path id="SvgjsPath1130" d="M0,0 L16,6 L0,12 L0,0" fill="#323232" stroke="#323232" stroke-width="1"></path></marker><marker id="SvgjsMarker1133" markerWidth="16" markerHeight="12" refX="11" refY="6" viewBox="0 0 16 12" orient="auto" markerUnits="userSpaceOnUse" stroke-dasharray="0,0"><path id="SvgjsPath1134" d="M0,0 L16,6 L0,12 L0,0" fill="#323232" stroke="#323232" stroke-width="1"></path></marker><marker id="SvgjsMarker1137" markerWidth="16" markerHeight="12" refX="11" refY="6" viewBox="0 0 16 12" orient="auto" markerUnits="userSpaceOnUse" stroke-dasharray="0,0"><path id="SvgjsPath1138" d="M0,0 L16,6 L0,12 L0,0" fill="#323232" stroke="#323232" stroke-width="1"></path></marker><marker id="SvgjsMarker1157" markerWidth="16" markerHeight="12" refX="11" refY="6" viewBox="0 0 16 12" orient="auto" markerUnits="userSpaceOnUse" stroke-dasharray="0,0"><path id="SvgjsPath1158" d="M0,0 L16,6 L0,12 L0,0" fill="#323232" stroke="#323232" stroke-width="1"></path></marker><marker id="SvgjsMarker1169" markerWidth="16" markerHeight="12" refX="11" refY="6" viewBox="0 0 16 12" orient="auto" markerUnits="userSpaceOnUse" stroke-dasharray="0,0"><path id="SvgjsPath1170" d="M0,0 L16,6 L0,12 L0,0" fill="#323232" stroke="#323232" stroke-width="1"></path></marker><marker id="SvgjsMarker1173" markerWidth="16" markerHeight="12" refX="5" refY="6" viewBox="0 0 16 12" orient="0" markerUnits="userSpaceOnUse" stroke-dasharray="0,0"><path id="SvgjsPath1174" d="M16,0 L0,6 L16,12 L16,0" fill="#323232" stroke="#323232" stroke-width="1"></path></marker><marker id="SvgjsMarker1259" markerWidth="13" markerHeight="9" refX="9.5" refY="4.5" viewBox="0 0 13 9" orient="auto" markerUnits="userSpaceOnUse" stroke-dasharray="0,0"><path id="SvgjsPath1260" d="M0,0 L13,4.5 L0,9 L0,0" fill="#323232" stroke="#323232" stroke-width="1"></path></marker><marker id="SvgjsMarker1263" markerWidth="13" markerHeight="9" refX="9.5" refY="4.5" viewBox="0 0 13 9" orient="auto" markerUnits="userSpaceOnUse" stroke-dasharray="0,0"><path id="SvgjsPath1264" d="M0,0 L13,4.5 L0,9 L0,0" fill="#323232" stroke="#323232" stroke-width="1"></path></marker><marker id="SvgjsMarker1267" markerWidth="16" markerHeight="12" refX="11" refY="6" viewBox="0 0 16 12" orient="auto" markerUnits="userSpaceOnUse" stroke-dasharray="0,0"><path id="SvgjsPath1268" d="M0,0 L16,6 L0,12 L0,0" fill="#323232" stroke="#323232" stroke-width="1"></path></marker><marker id="SvgjsMarker1271" markerWidth="16" markerHeight="12" refX="11" refY="6" viewBox="0 0 16 12" orient="auto" markerUnits="userSpaceOnUse" stroke-dasharray="0,0"><path id="SvgjsPath1272" d="M0,0 L16,6 L0,12 L0,0" fill="#323232" stroke="#323232" stroke-width="1"></path></marker><pattern id="SvgjsPattern1281" x="0" y="0" width="544.3" height="60.733391117739984" patternUnits="userSpaceOnUse"><image id="SvgjsImage1282" xlink:href="https://tc-cdn.processon.com/wps/685d03d1e4b08e973292ad70" width="544.3" height="60.733391117739984" preserveAspectRatio="none" crossOrigin="anonymous" x="0" y="0"></image></pattern><pattern patternUnits="userSpaceOnUse" id="wpspattern_mark_0" width="300" height="300"><text x="150" y="100" fill="#0000004d" font-size="18" transform="rotate(-45, 150, 150)" style="dominant-baseline: middle; text-anchor: middle;"></text></pattern></defs><rect id="svgbackgroundid" width="2000.6341725491193" height="839.9893382005013" fill="transparent"></rect><rect id="SvgjsRect1009" width="2000.6341725491193" height="839.9893382005013" fill="url(#pattern_mark_0)"></rect><rect id="SvgjsRect1010" width="2000.6341725491193" height="839.9893382005013" fill="url(#pattern_mark_1)"></rect><g id="SvgjsG1011" transform="translate(365.40910824862385,639.0055926902296)"><path id="SvgjsPath1012" d="M 0 0L 137.273 0L 137.273 109.054L 0 109.054Z" stroke-dasharray="1.5,2.25" stroke="rgba(33,41,48,1)" stroke-width="1.5" fill-opacity="1" fill="#ffffff"></path><g id="SvgjsG1013"><text id="SvgjsText1014" font-family="&quot;Microsoft YaHei&quot;, 微软雅黑, Arial" text-anchor="middle" font-size="13px" width="118px" fill="#323232" font-weight="400" align="middle" lineHeight="125%" anchor="middle" family="&quot;Microsoft YaHei&quot;, 微软雅黑, Arial" size="13px" weight="400" font-style="" opacity="1" y="43.902" transform="rotate(0)"></text></g></g><g id="SvgjsG1015" transform="translate(25,215.8977930886399)"><path id="SvgjsPath1016" d="M 0 4Q 0 0 4 0L 432.333 0Q 436.333 0 436.333 4L 436.333 121.052Q 436.333 125.052 432.333 125.052L 4 125.052Q 0 125.052 0 121.052Z" stroke-dasharray="7.5,3" stroke="rgba(33,41,48,1)" stroke-width="1.5" fill-opacity="1" fill="#ffdab9"></path><g id="SvgjsG1017"><text id="SvgjsText1018" font-family="&quot;Microsoft YaHei&quot;, 微软雅黑, Arial" text-anchor="middle" font-size="13px" width="417px" fill="#323232" font-weight="400" align="middle" lineHeight="125%" anchor="middle" family="&quot;Microsoft YaHei&quot;, 微软雅黑, Arial" size="13px" weight="400" font-style="" opacity="1" y="51.901" transform="rotate(0)"></text></g></g><g id="SvgjsG1019" transform="translate(46.96667938232423,261.8541677263047)"><path id="SvgjsPath1020" d="M 0 4Q 0 0 4 0L 390 0Q 394 0 394 4L 394 50Q 394 54 390 54L 4 54Q 0 54 0 50Z" stroke="rgba(33,41,48,1)" stroke-width="1.5" fill-opacity="1" fill="#caedb4"></path><g id="SvgjsG1021"><text id="SvgjsText1022" font-family="&quot;Microsoft YaHei&quot;, 微软雅黑, Arial" text-anchor="middle" font-size="20px" width="374px" fill="#323232" font-weight="400" align="middle" lineHeight="125%" anchor="middle" family="&quot;Microsoft YaHei&quot;, 微软雅黑, Arial" size="20px" weight="400" font-style="" opacity="1" y="9" transform="rotate(0)"><tspan id="SvgjsTspan1023" dy="25" x="197"><tspan id="SvgjsTspan1024" style="">A [class] bearing</tspan></tspan></text></g></g><g id="SvgjsG1025" transform="translate(46.96667938232426,220.7477083961611)"><path id="SvgjsPath1026" d="M 0 0L 237.748 0L 237.748 40L 0 40Z" stroke="none" fill="none"></path><g id="SvgjsG1027"><text id="SvgjsText1028" font-family="&quot;Microsoft YaHei&quot;, 微软雅黑, Arial" text-anchor="middle" font-size="24px" width="238px" fill="#7985ec" font-weight="700" align="middle" lineHeight="125%" anchor="middle" family="&quot;Microsoft YaHei&quot;, 微软雅黑, Arial" size="24px" weight="700" font-style="" opacity="1" y="-1" transform="rotate(0)"><tspan id="SvgjsTspan1029" dy="30" x="119"><tspan id="SvgjsTspan1030" style="">Prompt</tspan></tspan></text></g></g><g id="SvgjsG1031" transform="translate(534.3148277070787,238.30151071604212)"><path id="SvgjsPath1032" d="M 0 4Q 0 0 4 0L 209.995 0Q 213.995 0 213.995 4L 213.995 76.022Q 213.995 80.022 209.995 80.022L 4 80.022Q 0 80.022 0 76.022Z" stroke="rgba(33,41,48,1)" stroke-width="1.5" fill-opacity="1" fill="#b0e38f"></path><g id="SvgjsG1033"><text id="SvgjsText1034" font-family="&quot;Microsoft YaHei&quot;, 微软雅黑, Arial" text-anchor="middle" font-size="24px" width="194px" fill="#7985ec" font-weight="700" align="middle" lineHeight="125%" anchor="middle" family="&quot;Microsoft YaHei&quot;, 微软雅黑, Arial" size="24px" weight="700" font-style="" opacity="1" y="19.011000000000003" transform="rotate(0)"><tspan id="SvgjsTspan1035" dy="30" x="107"><tspan id="SvgjsTspan1036" style="">Text Encoder     </tspan></tspan></text></g></g><g id="SvgjsG1037" transform="translate(805.4523936680386,25)"><path id="SvgjsPath1038" d="M 0 4Q 0 0 4 0L 125.131 0Q 129.131 0 129.131 4L 129.131 502.625Q 129.131 506.625 125.131 506.625L 4 506.625Q 0 506.625 0 502.625Z" stroke-dasharray="7.5,3,1.5,3" stroke="rgba(33,41,48,1)" stroke-width="1.5" fill-opacity="1" fill="#faf0e6"></path><g id="SvgjsG1039"><text id="SvgjsText1040" font-family="&quot;Microsoft YaHei&quot;, 微软雅黑, Arial" text-anchor="middle" font-size="13px" width="110px" fill="#5b79e8" font-weight="400" align="middle" lineHeight="125%" anchor="middle" family="&quot;Microsoft YaHei&quot;, 微软雅黑, Arial" size="13px" weight="400" font-style="" opacity="1" y="242.6875" transform="rotate(0)"></text></g></g><g id="SvgjsG1041" transform="translate(822.2899171157645,91.7777724795869)"><path id="SvgjsPath1042" d="M 0 4Q 0 0 4 0L 93.823 0Q 97.823 0 97.823 4L 97.823 31Q 97.823 35 93.823 35L 4 35Q 0 35 0 31Z" stroke="rgba(33,41,48,1)" stroke-width="1.5" fill-opacity="1" fill="#fff0f5"></path><g id="SvgjsG1043"><text id="SvgjsText1044" font-family="&quot;Microsoft YaHei&quot;, 微软雅黑, Arial" text-anchor="middle" font-size="13px" width="78px" fill="#5b79e8" font-weight="400" align="middle" lineHeight="125%" anchor="middle" family="&quot;Microsoft YaHei&quot;, 微软雅黑, Arial" size="13px" weight="400" font-style="" opacity="1" y="6.875" transform="rotate(0)"></text></g></g><g id="SvgjsG1045" transform="translate(822.2899171157645,149.81248834398028)"><path id="SvgjsPath1046" d="M 0 4Q 0 0 4 0L 93.823 0Q 97.823 0 97.823 4L 97.823 31Q 97.823 35 93.823 35L 4 35Q 0 35 0 31Z" stroke="rgba(33,41,48,1)" stroke-width="1.5" fill-opacity="1" fill="#fff0f5"></path><g id="SvgjsG1047"><text id="SvgjsText1048" font-family="&quot;Microsoft YaHei&quot;, 微软雅黑, Arial" text-anchor="middle" font-size="13px" width="78px" fill="#5b79e8" font-weight="400" align="middle" lineHeight="125%" anchor="middle" family="&quot;Microsoft YaHei&quot;, 微软雅黑, Arial" size="13px" weight="400" font-style="" opacity="1" y="6.875" transform="rotate(0)"></text></g></g><g id="SvgjsG1049" transform="translate(822.2899171157645,205.3680438995358)"><path id="SvgjsPath1050" d="M 0 4Q 0 0 4 0L 93.823 0Q 97.823 0 97.823 4L 97.823 31Q 97.823 35 93.823 35L 4 35Q 0 35 0 31Z" stroke="rgba(33,41,48,1)" stroke-width="1.5" fill-opacity="1" fill="#fff0f5"></path><g id="SvgjsG1051"><text id="SvgjsText1052" font-family="&quot;Microsoft YaHei&quot;, 微软雅黑, Arial" text-anchor="middle" font-size="13px" width="78px" fill="#5b79e8" font-weight="400" align="middle" lineHeight="125%" anchor="middle" family="&quot;Microsoft YaHei&quot;, 微软雅黑, Arial" size="13px" weight="400" font-style="" opacity="1" y="6.875" transform="rotate(0)"></text></g></g><g id="SvgjsG1053" transform="translate(822.2899171157645,260.92359945509133)"><path id="SvgjsPath1054" d="M 0 4Q 0 0 4 0L 93.823 0Q 97.823 0 97.823 4L 97.823 31Q 97.823 35 93.823 35L 4 35Q 0 35 0 31Z" stroke="rgba(33,41,48,1)" stroke-width="1.5" fill-opacity="1" fill="#fff0f5"></path><g id="SvgjsG1055"><text id="SvgjsText1056" font-family="&quot;Microsoft YaHei&quot;, 微软雅黑, Arial" text-anchor="middle" font-size="13px" width="78px" fill="#5b79e8" font-weight="400" align="middle" lineHeight="125%" anchor="middle" family="&quot;Microsoft YaHei&quot;, 微软雅黑, Arial" size="13px" weight="400" font-style="" opacity="1" y="6.875" transform="rotate(0)"></text></g></g><g id="SvgjsG1057" transform="translate(822.2899171157645,316.4791550106469)"><path id="SvgjsPath1058" d="M 0 4Q 0 0 4 0L 93.823 0Q 97.823 0 97.823 4L 97.823 31Q 97.823 35 93.823 35L 4 35Q 0 35 0 31Z" stroke="rgba(33,41,48,1)" stroke-width="1.5" fill-opacity="1" fill="#e6e6fa"></path><g id="SvgjsG1059"><text id="SvgjsText1060" font-family="&quot;Microsoft YaHei&quot;, 微软雅黑, Arial" text-anchor="middle" font-size="13px" width="78px" fill="#5b79e8" font-weight="400" align="middle" lineHeight="125%" anchor="middle" family="&quot;Microsoft YaHei&quot;, 微软雅黑, Arial" size="13px" weight="400" font-style="" opacity="1" y="6.875" transform="rotate(0)"></text></g></g><g id="SvgjsG1061" transform="translate(822.2899171157645,375.03273915487614)"><path id="SvgjsPath1062" d="M 0 4Q 0 0 4 0L 93.823 0Q 97.823 0 97.823 4L 97.823 31Q 97.823 35 93.823 35L 4 35Q 0 35 0 31Z" stroke="rgba(33,41,48,1)" stroke-width="1.5" fill-opacity="1" fill="#e6e6fa"></path><g id="SvgjsG1063"><text id="SvgjsText1064" font-family="&quot;Microsoft YaHei&quot;, 微软雅黑, Arial" text-anchor="middle" font-size="13px" width="78px" fill="#5b79e8" font-weight="400" align="middle" lineHeight="125%" anchor="middle" family="&quot;Microsoft YaHei&quot;, 微软雅黑, Arial" size="13px" weight="400" font-style="" opacity="1" y="6.875" transform="rotate(0)"></text></g></g><g id="SvgjsG1065" transform="translate(822.2899171157645,427.59026612175774)"><path id="SvgjsPath1066" d="M 0 4Q 0 0 4 0L 93.823 0Q 97.823 0 97.823 4L 97.823 31Q 97.823 35 93.823 35L 4 35Q 0 35 0 31Z" stroke="rgba(33,41,48,1)" stroke-width="1.5" fill-opacity="1" fill="#e6e6fa"></path><g id="SvgjsG1067"><text id="SvgjsText1068" font-family="&quot;Microsoft YaHei&quot;, 微软雅黑, Arial" text-anchor="middle" font-size="13px" width="78px" fill="#5b79e8" font-weight="400" align="middle" lineHeight="125%" anchor="middle" family="&quot;Microsoft YaHei&quot;, 微软雅黑, Arial" size="13px" weight="400" font-style="" opacity="1" y="6.875" transform="rotate(0)"></text></g></g><g id="SvgjsG1069" transform="translate(822.2899171157645,483.1458216773134)"><path id="SvgjsPath1070" d="M 0 4Q 0 0 4 0L 93.823 0Q 97.823 0 97.823 4L 97.823 31Q 97.823 35 93.823 35L 4 35Q 0 35 0 31Z" stroke="rgba(33,41,48,1)" stroke-width="1.5" fill-opacity="1" fill="#e6e6fa"></path><g id="SvgjsG1071"><text id="SvgjsText1072" font-family="&quot;Microsoft YaHei&quot;, 微软雅黑, Arial" text-anchor="middle" font-size="13px" width="78px" fill="#5b79e8" font-weight="400" align="middle" lineHeight="125%" anchor="middle" family="&quot;Microsoft YaHei&quot;, 微软雅黑, Arial" size="13px" weight="400" font-style="" opacity="1" y="6.875" transform="rotate(0)"></text></g></g><g id="SvgjsG1073" transform="translate(806.6357100715511,28.520834392971352)"><path id="SvgjsPath1074" d="M 0 0L 129.131 0L 129.131 40L 0 40Z" stroke="none" fill="none"></path><g id="SvgjsG1075"><text id="SvgjsText1076" font-family="&quot;Microsoft YaHei&quot;, 微软雅黑, Arial" text-anchor="middle" font-size="20px" width="130px" fill="#5b79e8" font-weight="700" align="middle" lineHeight="125%" anchor="middle" family="&quot;Microsoft YaHei&quot;, 微软雅黑, Arial" size="20px" weight="700" font-style="italic" opacity="1" y="2" transform="rotate(0)"><tspan id="SvgjsTspan1077" dy="25" x="65"><tspan id="SvgjsTspan1078" style="">text tokens</tspan></tspan></text></g></g><g id="SvgjsG1079" transform="translate(382.8809650966099,668.7529899657724)"><path id="SvgjsPath1080" d="M 0 4Q 0 0 4 0L 57.2 0Q 61.2 0 61.2 4L 61.2 23Q 61.2 27 57.2 27L 4 27Q 0 27 0 23Z" stroke="rgba(33,41,48,1)" stroke-width="1.5" fill-opacity="1" fill="#358e90"></path><g id="SvgjsG1081"><text id="SvgjsText1082" font-family="&quot;Microsoft YaHei&quot;, 微软雅黑, Arial" text-anchor="middle" font-size="13px" width="42px" fill="#323232" font-weight="400" align="middle" lineHeight="125%" anchor="middle" family="&quot;Microsoft YaHei&quot;, 微软雅黑, Arial" size="13px" weight="400" font-style="" opacity="1" y="2.875" transform="rotate(0)"></text></g></g><g id="SvgjsG1083" transform="translate(400.61215565800785,677.3808424838718)"><path id="SvgjsPath1084" d="M 0 4Q 0 0 4 0L 57.2 0Q 61.2 0 61.2 4L 61.2 23Q 61.2 27 57.2 27L 4 27Q 0 27 0 23Z" stroke="rgba(33,41,48,1)" stroke-width="1.5" fill-opacity="1" fill="#358e90"></path><g id="SvgjsG1085"><text id="SvgjsText1086" font-family="&quot;Microsoft YaHei&quot;, 微软雅黑, Arial" text-anchor="middle" font-size="13px" width="42px" fill="#323232" font-weight="400" align="middle" lineHeight="125%" anchor="middle" family="&quot;Microsoft YaHei&quot;, 微软雅黑, Arial" size="13px" weight="400" font-style="" opacity="1" y="2.875" transform="rotate(0)"></text></g></g><g id="SvgjsG1087" transform="translate(420.78770550229524,691.4283620660949)"><path id="SvgjsPath1088" d="M 0 4Q 0 0 4 0L 57.2 0Q 61.2 0 61.2 4L 61.2 23Q 61.2 27 57.2 27L 4 27Q 0 27 0 23Z" stroke="rgba(33,41,48,1)" stroke-width="1.5" fill-opacity="1" fill="#358e90"></path><g id="SvgjsG1089"><text id="SvgjsText1090" font-family="&quot;Microsoft YaHei&quot;, 微软雅黑, Arial" text-anchor="middle" font-size="13px" width="42px" fill="#323232" font-weight="400" align="middle" lineHeight="125%" anchor="middle" family="&quot;Microsoft YaHei&quot;, 微软雅黑, Arial" size="13px" weight="400" font-style="" opacity="1" y="2.875" transform="rotate(0)"></text></g></g><g id="SvgjsG1091" transform="translate(578.6666793823242,641.35241124431)"><path id="SvgjsPath1092" d="M 0 4Q 0 0 4 0L 109 0Q 113 0 113 4L 113 100.361Q 113 104.361 109 104.361L 4 104.361Q 0 104.361 0 100.361Z" stroke="rgba(33,41,48,1)" stroke-width="1.5" fill-opacity="1" fill="#f4c18f"></path><g id="SvgjsG1093"><text id="SvgjsText1094" font-family="&quot;Microsoft YaHei&quot;, 微软雅黑, Arial" text-anchor="middle" font-size="13px" width="93px" fill="#323232" font-weight="400" align="middle" lineHeight="125%" anchor="middle" family="&quot;Microsoft YaHei&quot;, 微软雅黑, Arial" size="13px" weight="400" font-style="" opacity="1" y="41.5555" transform="rotate(0)"></text></g></g><g id="SvgjsG1095" transform="translate(585.5627959940856,652.5327391548761)"><path id="SvgjsPath1096" d="M 0 20C 0 -6.667 40.8 -6.667 40.8 20C 40.8 46.667 0 46.667 0 20Z" stroke="rgba(33,41,48,1)" stroke-width="1.5" fill-opacity="1" fill="#e5f6da"></path><g id="SvgjsG1097"><text id="SvgjsText1098" font-family="&quot;Microsoft YaHei&quot;, 微软雅黑, Arial" text-anchor="middle" font-size="20px" width="21px" fill="#323232" font-weight="700" align="middle" lineHeight="125%" anchor="middle" family="&quot;Microsoft YaHei&quot;, 微软雅黑, Arial" size="20px" weight="700" font-style="" opacity="1" y="2" transform="rotate(0)"><tspan id="SvgjsTspan1099" dy="25" x="20.5"><tspan id="SvgjsTspan1100" style="">Q</tspan></tspan></text></g></g><g id="SvgjsG1101" transform="translate(641.7666793823242,652.5327391548761)"><path id="SvgjsPath1102" d="M 0 20C 0 -6.667 40.8 -6.667 40.8 20C 40.8 46.667 0 46.667 0 20Z" stroke="rgba(33,41,48,1)" stroke-width="1.5" fill-opacity="1" fill="#e5f6da"></path><g id="SvgjsG1103"><text id="SvgjsText1104" font-family="&quot;Microsoft YaHei&quot;, 微软雅黑, Arial" text-anchor="middle" font-size="20px" width="21px" fill="#323232" font-weight="700" align="middle" lineHeight="125%" anchor="middle" family="&quot;Microsoft YaHei&quot;, 微软雅黑, Arial" size="20px" weight="700" font-style="" opacity="1" y="2" transform="rotate(0)"><tspan id="SvgjsTspan1105" dy="25" x="20.5"><tspan id="SvgjsTspan1106" style="">K</tspan></tspan></text></g></g><g id="SvgjsG1107" transform="translate(614.7666793823242,693.5327391548761)"><path id="SvgjsPath1108" d="M 0 20C 0 -6.667 40.8 -6.667 40.8 20C 40.8 46.667 0 46.667 0 20Z" stroke="rgba(33,41,48,1)" stroke-width="1.5" fill-opacity="1" fill="#e5f6da"></path><g id="SvgjsG1109"><text id="SvgjsText1110" font-family="&quot;Microsoft YaHei&quot;, 微软雅黑, Arial" text-anchor="middle" font-size="20px" width="21px" fill="#323232" font-weight="700" align="middle" lineHeight="125%" anchor="middle" family="&quot;Microsoft YaHei&quot;, 微软雅黑, Arial" size="20px" weight="700" font-style="" opacity="1" y="2" transform="rotate(0)"><tspan id="SvgjsTspan1111" dy="25" x="20.5"><tspan id="SvgjsTspan1112" style="">V</tspan></tspan></text></g></g><g id="SvgjsG1113"><path id="SvgjsPath1114" d="M692.4166793823242 693.5322158974527L715.1666793823242 693.5322158974527L715.1666793823242 693.5322778729632L738.6666793823242 693.5322778729632" stroke="#323232" stroke-width="3" fill="none" marker-end="url(#SvgjsMarker1115)"></path></g><g id="SvgjsG1117" transform="translate(859.623030621253,664.0327391548761)"><path id="SvgjsPath1118" d="M 0 0L 31.1 0L 31.1 35L 0 35Z" stroke="none" fill="none"></path><g id="SvgjsG1119"><text id="SvgjsText1120" font-family="&quot;Microsoft YaHei&quot;, 微软雅黑, Arial" text-anchor="middle" font-size="20px" width="32px" fill="#323232" font-weight="400" align="middle" lineHeight="125%" anchor="middle" family="&quot;Microsoft YaHei&quot;, 微软雅黑, Arial" size="20px" weight="400" font-style="" opacity="1" y="-0.5" transform="rotate(0)"><tspan id="SvgjsTspan1121" dy="25" x="16"><tspan id="SvgjsTspan1122" style="">...</tspan></tspan></text></g></g><g id="SvgjsG1123"><path id="SvgjsPath1124" d="M503.4318355213419 693.5325889711382L574.0166793823814 693.5322389558197" stroke="#323232" stroke-width="3" fill="none" marker-end="url(#SvgjsMarker1125)"></path></g><g id="SvgjsG1127"><path id="SvgjsPath1128" d="M283.52814777588947 693.5327391548763L360.7591082486239 693.5327391548763" stroke="#323232" stroke-width="3" fill="none" marker-end="url(#SvgjsMarker1129)"></path></g><g id="SvgjsG1131"><path id="SvgjsPath1132" d="M462.0833578954473 278.42245761404644L529.6648330961259 278.31956775845885" stroke="#323232" stroke-width="3" fill="none" marker-end="url(#SvgjsMarker1133)"></path></g><g id="SvgjsG1135"><path id="SvgjsPath1136" d="M749.0595365251814 278.3125107160422L800.8023936680386 278.3125107160422" stroke="#323232" stroke-width="3" fill="none" marker-end="url(#SvgjsMarker1137)"></path></g><g id="SvgjsG1139" transform="translate(1276.9341725491195,564.6356384874586)"><path id="SvgjsPath1140" d="M 0 4Q 0 0 4 0L 150.4 0Q 154.4 0 154.4 4L 154.4 246.354Q 154.4 250.354 150.4 250.354L 4 250.354Q 0 250.354 0 246.354Z" stroke-dasharray="7.5,3" stroke="rgba(33,41,48,1)" stroke-width="1.5" fill-opacity="1" fill="#ffffff"></path><g id="SvgjsG1141"><text id="SvgjsText1142" font-family="&quot;Microsoft YaHei&quot;, 微软雅黑, Arial" text-anchor="middle" font-size="13px" width="135px" fill="#323232" font-weight="400" align="middle" lineHeight="125%" anchor="middle" family="&quot;Microsoft YaHei&quot;, 微软雅黑, Arial" size="13px" weight="400" font-style="" opacity="1" y="114.552" transform="rotate(0)"></text></g></g><g id="SvgjsG1143" transform="translate(1327.5936882513267,659.0327391548761)"><path id="SvgjsPath1144" d="M 0 4Q 0 0 4 0L 57.2 0Q 61.2 0 61.2 4L 61.2 23Q 61.2 27 57.2 27L 4 27Q 0 27 0 23Z" stroke="rgba(33,41,48,1)" stroke-width="1.5" fill-opacity="1" fill="#fff5ee"></path><g id="SvgjsG1145"><text id="SvgjsText1146" font-family="&quot;Microsoft YaHei&quot;, 微软雅黑, Arial" text-anchor="middle" font-size="13px" width="42px" fill="#323232" font-weight="400" align="middle" lineHeight="125%" anchor="middle" family="&quot;Microsoft YaHei&quot;, 微软雅黑, Arial" size="13px" weight="400" font-style="" opacity="1" y="2.875" transform="rotate(0)"></text></g></g><g id="SvgjsG1147" transform="translate(1362.0815155246592,140.70236293853267)"><path id="SvgjsPath1148" d="M 0 8.283Q 24.85 24.85 49.7 8.283Q 74.55 -8.283 99.4 8.283L 99.4 266.937Q 74.55 250.37 49.7 266.937Q 24.85 283.504 0 266.937L 0 8.283Z" stroke="rgba(33,41,48,1)" stroke-width="1.5" fill-opacity="1" fill="#eed5b7"></path><g id="SvgjsG1149"><text id="SvgjsText1150" font-family="&quot;Microsoft YaHei&quot;, 微软雅黑, Arial" text-anchor="middle" font-size="24px" width="100px" fill="#323232" font-weight="700" align="middle" lineHeight="125%" anchor="middle" family="&quot;Microsoft YaHei&quot;, 微软雅黑, Arial" size="24px" weight="700" font-style="italic" opacity="1" y="116.60999999999999" transform="rotate(0)"></text></g></g><g id="SvgjsG1151" transform="translate(1071.6666793823242,258.3124883439805)"><path id="SvgjsPath1152" d="M 0 20C 0 -6.667 40.8 -6.667 40.8 20C 40.8 46.667 0 46.667 0 20Z" stroke="rgba(33,41,48,1)" stroke-width="1.5" fill-opacity="1" fill="#eea2ae"></path><path id="SvgjsPath1153" d="M 6.8 6.667L 34 33.333M 34 6.667L 6.8 33.333" stroke="rgba(33,41,48,1)" stroke-width="1.5" fill-opacity="1" fill="#eea2ae"></path><path id="SvgjsPath1154" d="M 0 20C 0 -6.667 40.8 -6.667 40.8 20C 40.8 46.667 0 46.667 0 20Z" stroke="none" fill="none"></path></g><g id="SvgjsG1155"><path id="SvgjsPath1156" d="M1317.0079970994223 563.8856384874586L1317.0079970994223 434.97059354740804L1092.0666793823243 434.97059354740804L1092.0666793823243 302.96248834398045" stroke="#323232" stroke-width="3" fill="none" marker-end="url(#SvgjsMarker1157)"></path></g><g id="SvgjsG1159" transform="translate(1126.8618875588904,480.46494334511954)"><path id="SvgjsPath1160" d="M 0 4Q 0 0 4 0L 146.1 0Q 150.1 0 150.1 4L 150.1 58Q 150.1 62 146.1 62L 4 62Q 0 62 0 58Z" stroke="rgba(33,41,48,1)" stroke-width="1.5" fill-opacity="1" fill="#ffe4e1"></path><g id="SvgjsG1161"><text id="SvgjsText1162" font-family="&quot;Microsoft YaHei&quot;, 微软雅黑, Arial" text-anchor="middle" font-size="24px" width="131px" fill="#323232" font-weight="700" align="middle" lineHeight="125%" anchor="middle" family="&quot;Microsoft YaHei&quot;, 微软雅黑, Arial" size="24px" weight="700" font-style="" opacity="1" y="-5" transform="rotate(0)"><tspan id="SvgjsTspan1163" dy="30" x="75.5"><tspan id="SvgjsTspan1164" style="">Residual    </tspan></tspan><tspan id="SvgjsTspan1165" dy="30" x="75.5"><tspan id="SvgjsTspan1166" style="">Adapter    </tspan></tspan></text></g></g><g id="SvgjsG1167"><path id="SvgjsPath1168" d="M1126.1118875588904 511.46457993659817L1092.0666793823243 511.46457993659817L1092.0666793823243 302.96248834398045" stroke="#323232" stroke-width="3" fill="none" marker-end="url(#SvgjsMarker1169)"></path></g><g id="SvgjsG1171"><path id="SvgjsPath1172" d="M1281.6118875588904 511.46457993659817L1317.917088008513 511.46457993659817L1317.917088008513 563.8856384874586" stroke="#323232" stroke-width="3" fill="none" marker-start="url(#SvgjsMarker1173)"></path></g><g id="SvgjsG1175" transform="translate(1495.8166793823243,220.7477083961611)"><path id="SvgjsPath1176" d="M 0 38.066L 68.157 38.066L 68.157 0L 123.921 57.676L 68.157 115.352L 68.157 77.286L 0 77.286L 0 38.066Z" stroke="rgba(33,41,48,1)" stroke-width="1.5" fill-opacity="1" fill="#fff5ee"></path><g id="SvgjsG1177"><text id="SvgjsText1178" font-family="&quot;Microsoft YaHei&quot;, 微软雅黑, Arial" text-anchor="middle" font-size="13px" width="124px" fill="#323232" font-weight="400" align="middle" lineHeight="125%" anchor="middle" family="&quot;Microsoft YaHei&quot;, 微软雅黑, Arial" size="13px" weight="400" font-style="" opacity="1" y="47.051" transform="rotate(0)"></text></g></g><g id="SvgjsG1179" transform="translate(1307.4666793823242,687.3424395248828)"><path id="SvgjsPath1180" d="M 0 0L 99.4 0L 99.4 40L 0 40Z" stroke="none" fill="none"></path><g id="SvgjsG1181"><text id="SvgjsText1182" font-family="Arial" text-anchor="middle" font-size="17px" width="100px" fill="#7f7f7f" font-weight="700" align="middle" lineHeight="125%" anchor="middle" family="Arial" size="17px" weight="700" font-style="italic" opacity="1" y="5.375" transform="rotate(0)"><tspan id="SvgjsTspan1183" dy="21.25" x="50"><tspan id="SvgjsTspan1184" style="">class token</tspan></tspan></text></g></g><g id="SvgjsG1185" transform="translate(738.6666793823242,641.35241124431)"><path id="SvgjsPath1186" d="M 0 4Q 0 0 4 0L 109 0Q 113 0 113 4L 113 100.361Q 113 104.361 109 104.361L 4 104.361Q 0 104.361 0 100.361Z" stroke="rgba(33,41,48,1)" stroke-width="1.5" fill-opacity="1" fill="#f4c18f"></path><g id="SvgjsG1187"><text id="SvgjsText1188" font-family="&quot;Microsoft YaHei&quot;, 微软雅黑, Arial" text-anchor="middle" font-size="13px" width="93px" fill="#323232" font-weight="400" align="middle" lineHeight="125%" anchor="middle" family="&quot;Microsoft YaHei&quot;, 微软雅黑, Arial" size="13px" weight="400" font-style="" opacity="1" y="41.5555" transform="rotate(0)"></text></g></g><g id="SvgjsG1189" transform="translate(745.5627959940856,652.5327391548761)"><path id="SvgjsPath1190" d="M 0 20C 0 -6.667 40.8 -6.667 40.8 20C 40.8 46.667 0 46.667 0 20Z" stroke="rgba(33,41,48,1)" stroke-width="1.5" fill-opacity="1" fill="#e5f6da"></path><g id="SvgjsG1191"><text id="SvgjsText1192" font-family="&quot;Microsoft YaHei&quot;, 微软雅黑, Arial" text-anchor="middle" font-size="20px" width="21px" fill="#323232" font-weight="700" align="middle" lineHeight="125%" anchor="middle" family="&quot;Microsoft YaHei&quot;, 微软雅黑, Arial" size="20px" weight="700" font-style="" opacity="1" y="2" transform="rotate(0)"><tspan id="SvgjsTspan1193" dy="25" x="20.5"><tspan id="SvgjsTspan1194" style="">Q</tspan></tspan></text></g></g><g id="SvgjsG1195" transform="translate(801.7666793823242,652.5327391548761)"><path id="SvgjsPath1196" d="M 0 20C 0 -6.667 40.8 -6.667 40.8 20C 40.8 46.667 0 46.667 0 20Z" stroke="rgba(33,41,48,1)" stroke-width="1.5" fill-opacity="1" fill="#e5f6da"></path><g id="SvgjsG1197"><text id="SvgjsText1198" font-family="&quot;Microsoft YaHei&quot;, 微软雅黑, Arial" text-anchor="middle" font-size="20px" width="21px" fill="#323232" font-weight="700" align="middle" lineHeight="125%" anchor="middle" family="&quot;Microsoft YaHei&quot;, 微软雅黑, Arial" size="20px" weight="700" font-style="" opacity="1" y="2" transform="rotate(0)"><tspan id="SvgjsTspan1199" dy="25" x="20.5"><tspan id="SvgjsTspan1200" style="">K</tspan></tspan></text></g></g><g id="SvgjsG1201" transform="translate(774.7666793823242,693.5327391548761)"><path id="SvgjsPath1202" d="M 0 20C 0 -6.667 40.8 -6.667 40.8 20C 40.8 46.667 0 46.667 0 20Z" stroke="rgba(33,41,48,1)" stroke-width="1.5" fill-opacity="1" fill="#e5f6da"></path><g id="SvgjsG1203"><text id="SvgjsText1204" font-family="&quot;Microsoft YaHei&quot;, 微软雅黑, Arial" text-anchor="middle" font-size="20px" width="21px" fill="#323232" font-weight="700" align="middle" lineHeight="125%" anchor="middle" family="&quot;Microsoft YaHei&quot;, 微软雅黑, Arial" size="20px" weight="700" font-style="" opacity="1" y="2" transform="rotate(0)"><tspan id="SvgjsTspan1205" dy="25" x="20.5"><tspan id="SvgjsTspan1206" style="">V</tspan></tspan></text></g></g><g id="SvgjsG1207" transform="translate(910.6666793823242,641.35241124431)"><path id="SvgjsPath1208" d="M 0 4Q 0 0 4 0L 109 0Q 113 0 113 4L 113 100.361Q 113 104.361 109 104.361L 4 104.361Q 0 104.361 0 100.361Z" stroke="rgba(33,41,48,1)" stroke-width="1.5" fill-opacity="1" fill="#f4c18f"></path><g id="SvgjsG1209"><text id="SvgjsText1210" font-family="&quot;Microsoft YaHei&quot;, 微软雅黑, Arial" text-anchor="middle" font-size="13px" width="93px" fill="#323232" font-weight="400" align="middle" lineHeight="125%" anchor="middle" family="&quot;Microsoft YaHei&quot;, 微软雅黑, Arial" size="13px" weight="400" font-style="" opacity="1" y="41.5555" transform="rotate(0)"></text></g></g><g id="SvgjsG1211" transform="translate(917.5627959940857,652.5327391548761)"><path id="SvgjsPath1212" d="M 0 20C 0 -6.667 40.8 -6.667 40.8 20C 40.8 46.667 0 46.667 0 20Z" stroke="rgba(33,41,48,1)" stroke-width="1.5" fill-opacity="1" fill="#e5f6da"></path><g id="SvgjsG1213"><text id="SvgjsText1214" font-family="&quot;Microsoft YaHei&quot;, 微软雅黑, Arial" text-anchor="middle" font-size="20px" width="21px" fill="#323232" font-weight="700" align="middle" lineHeight="125%" anchor="middle" family="&quot;Microsoft YaHei&quot;, 微软雅黑, Arial" size="20px" weight="700" font-style="" opacity="1" y="2" transform="rotate(0)"><tspan id="SvgjsTspan1215" dy="25" x="20.5"><tspan id="SvgjsTspan1216" style="">Q</tspan></tspan></text></g></g><g id="SvgjsG1217" transform="translate(973.7666793823241,652.5327391548761)"><path id="SvgjsPath1218" d="M 0 20C 0 -6.667 40.8 -6.667 40.8 20C 40.8 46.667 0 46.667 0 20Z" stroke="rgba(33,41,48,1)" stroke-width="1.5" fill-opacity="1" fill="#e5f6da"></path><g id="SvgjsG1219"><text id="SvgjsText1220" font-family="&quot;Microsoft YaHei&quot;, 微软雅黑, Arial" text-anchor="middle" font-size="20px" width="21px" fill="#323232" font-weight="700" align="middle" lineHeight="125%" anchor="middle" family="&quot;Microsoft YaHei&quot;, 微软雅黑, Arial" size="20px" weight="700" font-style="" opacity="1" y="2" transform="rotate(0)"><tspan id="SvgjsTspan1221" dy="25" x="20.5"><tspan id="SvgjsTspan1222" style="">K</tspan></tspan></text></g></g><g id="SvgjsG1223" transform="translate(946.7666793823241,693.5327391548763)"><path id="SvgjsPath1224" d="M 0 20C 0 -6.667 40.8 -6.667 40.8 20C 40.8 46.667 0 46.667 0 20Z" stroke="rgba(33,41,48,1)" stroke-width="1.5" fill-opacity="1" fill="#e5f6da"></path><g id="SvgjsG1225"><text id="SvgjsText1226" font-family="&quot;Microsoft YaHei&quot;, 微软雅黑, Arial" text-anchor="middle" font-size="20px" width="21px" fill="#323232" font-weight="700" align="middle" lineHeight="125%" anchor="middle" family="&quot;Microsoft YaHei&quot;, 微软雅黑, Arial" size="20px" weight="700" font-style="" opacity="1" y="2" transform="rotate(0)"><tspan id="SvgjsTspan1227" dy="25" x="20.5"><tspan id="SvgjsTspan1228" style="">V</tspan></tspan></text></g></g><g id="SvgjsG1229" transform="matrix(-1.8369701987210297e-16,-1,1,-1.8369701987210297e-16,1382.2219049644189,362.1994207191751)"><path id="SvgjsPath1230" d="M 0 0L 137.5 0L 137.5 66.592L 0 66.592Z" stroke="none" fill="none"></path><g id="SvgjsG1231"><text id="SvgjsText1232" font-family="Beau" text-anchor="middle" font-size="32px" width="138px" fill="#7f8b98" font-weight="700" align="middle" lineHeight="125%" anchor="middle" family="Beau" size="32px" weight="700" font-style="italic" opacity="1" y="5.295999999999999" transform="rotate(0)"><tspan id="SvgjsTspan1233" dy="40" x="69"><tspan id="SvgjsTspan1234" style="">Softmax</tspan></tspan></text></g></g><g id="SvgjsG1235" transform="translate(1071.6666793823242,641.35241124431)"><path id="SvgjsPath1236" d="M 0 4Q 0 0 4 0L 109 0Q 113 0 113 4L 113 100.361Q 113 104.361 109 104.361L 4 104.361Q 0 104.361 0 100.361Z" stroke="rgba(33,41,48,1)" stroke-width="1.5" fill-opacity="1" fill="#f4c18f"></path><g id="SvgjsG1237"><text id="SvgjsText1238" font-family="&quot;Microsoft YaHei&quot;, 微软雅黑, Arial" text-anchor="middle" font-size="13px" width="93px" fill="#323232" font-weight="400" align="middle" lineHeight="125%" anchor="middle" family="&quot;Microsoft YaHei&quot;, 微软雅黑, Arial" size="13px" weight="400" font-style="" opacity="1" y="41.5555" transform="rotate(0)"></text></g></g><g id="SvgjsG1239" transform="translate(1078.5627959940857,652.5327391548761)"><path id="SvgjsPath1240" d="M 0 20C 0 -6.667 40.8 -6.667 40.8 20C 40.8 46.667 0 46.667 0 20Z" stroke="rgba(33,41,48,1)" stroke-width="1.5" fill-opacity="1" fill="#e5f6da"></path><g id="SvgjsG1241"><text id="SvgjsText1242" font-family="&quot;Microsoft YaHei&quot;, 微软雅黑, Arial" text-anchor="middle" font-size="20px" width="21px" fill="#323232" font-weight="700" align="middle" lineHeight="125%" anchor="middle" family="&quot;Microsoft YaHei&quot;, 微软雅黑, Arial" size="20px" weight="700" font-style="" opacity="1" y="2" transform="rotate(0)"><tspan id="SvgjsTspan1243" dy="25" x="20.5"><tspan id="SvgjsTspan1244" style="">Q</tspan></tspan></text></g></g><g id="SvgjsG1245" transform="translate(1134.7666793823241,652.5327391548761)"><path id="SvgjsPath1246" d="M 0 20C 0 -6.667 40.8 -6.667 40.8 20C 40.8 46.667 0 46.667 0 20Z" stroke="rgba(33,41,48,1)" stroke-width="1.5" fill-opacity="1" fill="#e5f6da"></path><g id="SvgjsG1247"><text id="SvgjsText1248" font-family="&quot;Microsoft YaHei&quot;, 微软雅黑, Arial" text-anchor="middle" font-size="20px" width="21px" fill="#323232" font-weight="700" align="middle" lineHeight="125%" anchor="middle" family="&quot;Microsoft YaHei&quot;, 微软雅黑, Arial" size="20px" weight="700" font-style="" opacity="1" y="2" transform="rotate(0)"><tspan id="SvgjsTspan1249" dy="25" x="20.5"><tspan id="SvgjsTspan1250" style="">K</tspan></tspan></text></g></g><g id="SvgjsG1251" transform="translate(1107.7666793823241,693.5327391548763)"><path id="SvgjsPath1252" d="M 0 20C 0 -6.667 40.8 -6.667 40.8 20C 40.8 46.667 0 46.667 0 20Z" stroke="rgba(33,41,48,1)" stroke-width="1.5" fill-opacity="1" fill="#e5f6da"></path><g id="SvgjsG1253"><text id="SvgjsText1254" font-family="&quot;Microsoft YaHei&quot;, 微软雅黑, Arial" text-anchor="middle" font-size="20px" width="21px" fill="#323232" font-weight="700" align="middle" lineHeight="125%" anchor="middle" family="&quot;Microsoft YaHei&quot;, 微软雅黑, Arial" size="20px" weight="700" font-style="" opacity="1" y="2" transform="rotate(0)"><tspan id="SvgjsTspan1255" dy="25" x="20.5"><tspan id="SvgjsTspan1256" style="">V</tspan></tspan></text></g></g><g id="SvgjsG1257"><path id="SvgjsPath1258" d="M1185.4166793823242 693.53241124431L1230.8012947669395 693.53241124431L1230.8012947669395 693.53241124431L1274.235910151555 693.53241124431" stroke="#323232" stroke-width="1.5" fill="none" marker-end="url(#SvgjsMarker1259)"></path></g><g id="SvgjsG1261"><path id="SvgjsPath1262" d="M1024.4166793823242 693.53241124431L1047.6666793823242 693.53241124431L1047.6666793823242 693.53241124431L1068.9666793823242 693.53241124431" stroke="#323232" stroke-width="1.5" fill="none" marker-end="url(#SvgjsMarker1263)"></path></g><g id="SvgjsG1265"><path id="SvgjsPath1266" d="M935.3333936680385 278.312L1003.1250365251813 278.312L1003.1250365251813 278.3124883439805L1067.0166793823241 278.3124883439805" stroke="#323232" stroke-width="3" fill="none" marker-end="url(#SvgjsMarker1267)"></path></g><g id="SvgjsG1269"><path id="SvgjsPath1270" d="M1113.2166793823242 278.3124883439805L1237.2740974534918 278.3124883439805L1237.2740974534918 278.31236293853266L1357.431515524659 278.31236293853266" stroke="#323232" stroke-width="3" fill="none" marker-end="url(#SvgjsMarker1271)"></path></g><g id="SvgjsG1273" transform="translate(25,598.419656632439)"><path id="SvgjsPath1274" d="M 0 0L 257.528 0L 257.528 190.226L 0 190.226Z" stroke="rgba(33,41,48,1)" stroke-width="2" fill-opacity="1" fill="#f6edc1"></path><g id="SvgjsG1275"><text id="SvgjsText1276" font-family="&quot;Microsoft YaHei&quot;, 微软雅黑, Arial" text-anchor="middle" font-size="24px" width="238px" fill="#7985ec" font-weight="700" align="middle" lineHeight="125%" anchor="middle" family="&quot;Microsoft YaHei&quot;, 微软雅黑, Arial" size="24px" weight="700" font-style="" opacity="1" y="74.113" transform="rotate(0)"><tspan id="SvgjsTspan1277" dy="30" x="129"><tspan id="SvgjsTspan1278" style="">Datasets</tspan></tspan></text></g></g><g id="SvgjsG1279" transform="translate(1431.3341725491196,419.7315522273795)"><path id="SvgjsPath1280" d="M 0 0L 544.3 0L 544.3 60.733L 0 60.733Z" stroke="none" fill="url(#SvgjsPattern1281)" opacity="1"></path></g><g id="SvgjsG1283" transform="translate(1659.738107953753,243.31248834398048)"><path id="SvgjsPath1284" d="M 23.333 0L 222.857 0L 199.524 70L 0 70L 23.333 0Z" stroke="rgba(33,41,48,1)" stroke-width="1.5" fill-opacity="1" fill="#e74f4c"></path><g id="SvgjsG1285"><text id="SvgjsText1286" font-family="Beau" text-anchor="middle" font-size="24px" width="156px" fill="#70d5d7" font-weight="700" align="middle" lineHeight="125%" anchor="middle" family="Beau" size="24px" weight="700" font-style="italic" opacity="1" y="14" transform="rotate(0)"><tspan id="SvgjsTspan1287" dy="30" x="111.429"><tspan id="SvgjsTspan1288" style="">results</tspan></tspan></text></g></g><g id="SvgjsG1289"></g><rect id="SvgjsRect1290" width="2000.6341725491193" height="839.9893382005013" fill="url(#wpspattern_mark_0)"></rect></svg>